<?xml version="1.0" encoding="utf-8"?>
<!-- Generator: Adobe Illustrator 16.0.0, SVG Export Plug-In . SVG Version: 6.00 Build 0)  -->
<!DOCTYPE svg PUBLIC "-//W3C//DTD SVG 1.0//EN" "http://www.w3.org/TR/2001/REC-SVG-20010904/DTD/svg10.dtd">
<svg version="1.0" id="Layer_1" xmlns="http://www.w3.org/2000/svg" xmlns:xlink="http://www.w3.org/1999/xlink" x="0px" y="0px"
	 width="32px" height="32px" viewBox="0 0 32 32" enable-background="new 0 0 32 32" xml:space="preserve">
<g>
	<circle fill="#469FCC" cx="16" cy="16" r="16"/>
	<path opacity="0.15" d="M16,32c8.837,0,16-7.163,16-16S24.837,0,16,0S0,7.163,0,16S7.163,32,16,32z M16,2c7.732,0,14,6.268,14,14
		s-6.268,14-14,14S2,23.732,2,16S8.268,2,16,2z"/>
	<path fill="#FFFFFF" d="M10.607,17.422l7.031,7.033c0.781,0.781,1.947,0.679,2.728-0.103c0.781-0.781,0.843-1.983,0.062-2.765
		l-5.406-5.59l5.391-5.555c0.781-0.781,0.798-2.062,0.017-2.843c-0.78-0.781-2.017-0.813-2.798-0.032l-7.023,7.025
		C9.826,15.374,9.826,16.642,10.607,17.422z"/>
</g>
</svg>
