<?xml version="1.0" encoding="utf-8"?>
<!-- Generator: Adobe Illustrator 16.0.0, SVG Export Plug-In . SVG Version: 6.00 Build 0)  -->
<!DOCTYPE svg PUBLIC "-//W3C//DTD SVG 1.0//EN" "http://www.w3.org/TR/2001/REC-SVG-20010904/DTD/svg10.dtd">
<svg version="1.0" id="Layer_1" xmlns="http://www.w3.org/2000/svg" xmlns:xlink="http://www.w3.org/1999/xlink" x="0px" y="0px"
	 width="32px" height="32px" viewBox="0 0 32 32" enable-background="new 0 0 32 32" xml:space="preserve">
<g>
	<circle fill="#469FCC" cx="16" cy="16.031" r="16"/>
	<path opacity="0.15" d="M16,0.031c-8.837,0-16,7.163-16,16s7.163,16,16,16s16-7.163,16-16S24.837,0.031,16,0.031z M16,30.031
		c-7.732,0-14-6.268-14-14s6.268-14,14-14s14,6.268,14,14S23.732,30.031,16,30.031z"/>
	<path fill="#FFFFFF" d="M21.516,15.031l-6.516-5c-0.868-0.684-1.219-1-2-1c-1.008,0-1,0.875-1,0.875v12.125c0,0,0,1,1,1
		c0.734,0,1.132-0.316,2-1l6.531-5.016C22.156,16.594,22.188,15.641,21.516,15.031z"/>
</g>
</svg>
